<?xml version="1.0" encoding="utf-8"?>
<!-- Generator: Adobe Illustrator 17.0.0, SVG Export Plug-In . SVG Version: 6.00 Build 0)  -->
<!DOCTYPE svg PUBLIC "-//W3C//DTD SVG 1.1//EN" "http://www.w3.org/Graphics/SVG/1.1/DTD/svg11.dtd">
<svg version="1.1" id="Capa_1" xmlns="http://www.w3.org/2000/svg" xmlns:xlink="http://www.w3.org/1999/xlink" x="0px" y="0px"
	 width="1080px" height="1080px" viewBox="0 0 1080 1080" enable-background="new 0 0 1080 1080" xml:space="preserve">
<g>
	<linearGradient id="SVGID_1_" gradientUnits="userSpaceOnUse" x1="-122.0275" y1="959.9725" x2="954.5745" y2="-116.6296">
		<stop  offset="0" style="stop-color:#1DABAB"/>
		<stop  offset="1" style="stop-color:#05062D"/>
	</linearGradient>
	<path fill="url(#SVGID_1_)" d="M460.836,457.159c0-42.354-28.705-42.354-28.705-42.354H313.769v90.85h111.036
		C444.009,505.654,460.836,499.513,460.836,457.159z"/>
	<linearGradient id="SVGID_2_" gradientUnits="userSpaceOnUse" x1="-1" y1="1081" x2="1075.6021" y2="4.3979">
		<stop  offset="0" style="stop-color:#1DABAB"/>
		<stop  offset="1" style="stop-color:#05062D"/>
	</linearGradient>
	<path fill="url(#SVGID_2_)" d="M540,0C241.766,0,0,241.766,0,540s241.766,540,540,540s540-241.766,540-540S838.234,0,540,0z
		 M646.098,366.51h167.858v50.084H646.098V366.51z M561.379,629.175c0,124.108-129.258,120.142-129.258,120.142H220.532V342.561
		h211.609c64.331,0,115.002,35.635,115.002,108.273c0,72.84-61.953,77.393-61.953,77.393
		C566.934,528.227,561.389,629.175,561.379,629.175z M875.12,622.639H664.513c0,75.42,71.454,70.665,71.454,70.665
		c67.69,0,65.322-43.741,65.322-43.741h71.454c0,116.186-139.154,108.273-139.154,108.273
		c-166.857,0-156.172-155.576-156.172-155.576c0-0.799,0.202-156.182,156.172-156.182C898.28,446.079,875.12,622.639,875.12,622.639
		z"/>
	<linearGradient id="SVGID_3_" gradientUnits="userSpaceOnUse" x1="-39.0369" y1="1042.963" x2="1037.5652" y2="-33.639">
		<stop  offset="0" style="stop-color:#1DABAB"/>
		<stop  offset="1" style="stop-color:#05062D"/>
	</linearGradient>
	<path fill="url(#SVGID_3_)" d="M432.131,568.204H313.769v108.87h112.432c16.826-0.395,48.688-5.342,48.688-52.857
		C475.092,567.81,432.131,568.204,432.131,568.204z"/>
	<linearGradient id="SVGID_4_" gradientUnits="userSpaceOnUse" x1="102.9403" y1="1184.9403" x2="1179.5424" y2="108.3382">
		<stop  offset="0" style="stop-color:#1DABAB"/>
		<stop  offset="1" style="stop-color:#05062D"/>
	</linearGradient>
	<path fill="url(#SVGID_4_)" d="M735.177,505.654c-62.752,0-71.463,62.55-71.463,62.55H797.13
		C797.13,568.204,798.121,505.654,735.177,505.654z"/>
</g>
</svg>
