<?xml version="1.0" encoding="utf-8"?>
<!-- Generator: Adobe Illustrator 17.0.0, SVG Export Plug-In . SVG Version: 6.00 Build 0)  -->
<!DOCTYPE svg PUBLIC "-//W3C//DTD SVG 1.1//EN" "http://www.w3.org/Graphics/SVG/1.1/DTD/svg11.dtd">
<svg version="1.1" id="Layer_1" xmlns="http://www.w3.org/2000/svg" xmlns:xlink="http://www.w3.org/1999/xlink" x="0px" y="0px"
	 width="512px" height="512px" viewBox="0 0 512 512" enable-background="new 0 0 512 512" xml:space="preserve">
<linearGradient id="SVGID_1_" gradientUnits="userSpaceOnUse" x1="1" y1="511" x2="508.52" y2="3.48">
	<stop  offset="0" style="stop-color:#1DABAB"/>
	<stop  offset="1" style="stop-color:#05062D"/>
</linearGradient>
<path fill="url(#SVGID_1_)" d="M305,256c0,27.063-21.938,49-49,49s-49-21.938-49-49s21.938-49,49-49S305,228.938,305,256z"/>
<linearGradient id="SVGID_2_" gradientUnits="userSpaceOnUse" x1="0.9992" y1="510.9992" x2="508.5191" y2="3.4792">
	<stop  offset="0" style="stop-color:#1DABAB"/>
	<stop  offset="1" style="stop-color:#05062D"/>
</linearGradient>
<path fill="url(#SVGID_2_)" d="M370.594,169.305c-2.355-6.383-6.113-12.16-10.996-16.902c-4.742-4.883-10.516-8.641-16.902-10.996
	c-5.18-2.012-12.961-4.406-27.293-5.059c-15.504-0.707-20.152-0.859-59.402-0.859c-39.254,0-43.902,0.148-59.402,0.855
	c-14.332,0.656-22.117,3.051-27.293,5.063c-6.387,2.355-12.164,6.113-16.902,10.996c-4.883,4.742-8.641,10.516-11,16.902
	c-2.012,5.18-4.406,12.965-5.059,27.297c-0.707,15.5-0.859,20.148-0.859,59.402c0,39.25,0.152,43.898,0.859,59.402
	c0.652,14.332,3.047,22.113,5.059,27.293c2.359,6.387,6.113,12.16,10.996,16.902c4.742,4.883,10.516,8.641,16.902,10.996
	c5.18,2.016,12.965,4.41,27.297,5.063c15.5,0.707,20.145,0.855,59.398,0.855c39.258,0,43.906-0.148,59.402-0.855
	c14.332-0.652,22.117-3.047,27.297-5.063c12.82-4.945,22.953-15.078,27.898-27.898c2.012-5.18,4.406-12.961,5.063-27.293
	c0.707-15.504,0.855-20.152,0.855-59.402c0-39.254-0.148-43.902-0.855-59.402C375.004,182.27,372.609,174.484,370.594,169.305z
	 M256,331.484c-41.691,0-75.488-33.793-75.488-75.484s33.797-75.484,75.488-75.484c41.688,0,75.484,33.793,75.484,75.484
	S297.688,331.484,256,331.484z M334.469,195.172c-9.742,0-17.641-7.898-17.641-17.641s7.898-17.641,17.641-17.641
	s17.641,7.898,17.641,17.641C352.105,187.273,344.211,195.172,334.469,195.172z"/>
<linearGradient id="SVGID_3_" gradientUnits="userSpaceOnUse" x1="1" y1="511" x2="508.52" y2="3.48">
	<stop  offset="0" style="stop-color:#1DABAB"/>
	<stop  offset="1" style="stop-color:#05062D"/>
</linearGradient>
<path fill="url(#SVGID_3_)" d="M256,0C114.637,0,0,114.637,0,256s114.637,256,256,256s256-114.637,256-256S397.363,0,256,0z
	 M402.113,316.605c-0.711,15.648-3.199,26.332-6.832,35.684c-7.637,19.746-23.246,35.355-42.992,42.992
	c-9.348,3.633-20.035,6.117-35.68,6.832c-15.676,0.715-20.684,0.887-60.605,0.887c-39.926,0-44.93-0.172-60.609-0.887
	c-15.645-0.715-26.332-3.199-35.68-6.832c-9.813-3.691-18.695-9.477-26.039-16.957c-7.477-7.34-13.262-16.227-16.953-26.035
	c-3.633-9.348-6.121-20.035-6.832-35.68C109.168,300.93,109,295.922,109,256s0.168-44.93,0.887-60.605
	c0.711-15.648,3.195-26.332,6.828-35.684c3.691-9.809,9.48-18.695,16.961-26.035c7.34-7.48,16.227-13.266,26.035-16.957
	c9.352-3.633,20.035-6.117,35.684-6.832C211.07,109.172,216.078,109,256,109s44.93,0.172,60.605,0.891
	c15.648,0.711,26.332,3.195,35.684,6.824c9.809,3.691,18.695,9.48,26.039,16.961c7.477,7.344,13.266,16.227,16.953,26.035
	c3.637,9.352,6.121,20.035,6.836,35.684C402.832,211.07,403,216.078,403,256S402.832,300.93,402.113,316.605z"/>
</svg>
