<?xml version="1.0" encoding="utf-8"?>
<!-- Generator: Adobe Illustrator 17.0.0, SVG Export Plug-In . SVG Version: 6.00 Build 0)  -->
<!DOCTYPE svg PUBLIC "-//W3C//DTD SVG 1.1//EN" "http://www.w3.org/Graphics/SVG/1.1/DTD/svg11.dtd">
<svg version="1.1" id="Layer_1" xmlns="http://www.w3.org/2000/svg" xmlns:xlink="http://www.w3.org/1999/xlink" x="0px" y="0px"
	 width="512px" height="512px" viewBox="0 0 512 512" enable-background="new 0 0 512 512" xml:space="preserve">
<linearGradient id="SVGID_1_" gradientUnits="userSpaceOnUse" x1="74.9888" y1="437.0112" x2="437.0112" y2="74.9888">
	<stop  offset="0" style="stop-color:#1DABAB"/>
	<stop  offset="1" style="stop-color:#05062D"/>
</linearGradient>
<path fill="url(#SVGID_1_)" d="M256,0C114.637,0,0,114.637,0,256s114.637,256,256,256s256-114.637,256-256S397.363,0,256,0z
	 M181.609,387h-62.348V199.426h62.348V387z M150.438,173.813h-0.406c-20.922,0-34.453-14.402-34.453-32.402
	c0-18.406,13.945-32.41,35.273-32.41s34.453,14.004,34.859,32.41C185.711,159.41,172.18,173.813,150.438,173.813z M406.422,387
	h-62.34V286.652c0-25.219-9.027-42.418-31.586-42.418c-17.223,0-27.48,11.602-31.988,22.801c-1.648,4.008-2.051,9.609-2.051,15.215
	V387h-62.344c0,0,0.816-169.977,0-187.574h62.344v26.559c8.285-12.781,23.109-30.961,56.188-30.961
	c41.02,0,71.777,26.809,71.777,84.422V387z"/>
</svg>
